# Blender v3.1.2 OBJ File: 'low-poly-helicopter.blend'
# www.blender.org
mtllib low-poly-helicopter_helice.mtl
o Main_Rotor_Cube.002
v -0.154803 -0.390981 -0.008276
v -0.154803 -0.171744 -0.008276
v 0.008276 -0.390981 -0.154804
v 0.008276 -0.171744 -0.154804
v -0.008274 -0.390981 0.154803
v -0.008274 -0.171744 0.154803
v 0.154804 -0.390981 0.008275
v 0.154804 -0.171744 0.008275
v -0.219435 -0.095355 -0.011731
v 0.011731 -0.095355 -0.219436
v 0.219436 -0.095355 0.011730
v -0.011729 -0.095355 0.219435
v -0.219435 0.044456 -0.011731
v 0.011731 0.044456 -0.219436
v 0.219436 0.044456 0.011730
v -0.011729 0.044456 0.219435
v -0.108632 0.090580 -0.005807
v 0.005808 0.090580 -0.108634
v 0.108634 0.090580 0.005807
v -0.005806 0.090580 0.108633
v -0.108632 0.312857 -0.005807
v 0.005808 0.312857 -0.108634
v 0.108634 0.312857 0.005807
v -0.005806 0.312857 0.108633
v -0.236657 0.393572 -0.012651
v 0.012652 0.393572 -0.236659
v 0.236659 0.393572 0.012650
v -0.012650 0.393572 0.236658
v -0.236657 0.719376 -0.012651
v 0.012652 0.719376 -0.236659
v 0.236659 0.719376 0.012650
v -0.012650 0.719376 0.236658
v -0.088928 0.761334 -0.004754
v 0.004755 0.761334 -0.088929
v 0.088929 0.761334 0.004753
v -0.004753 0.761334 0.088928
v 0.048078 -0.081396 0.239572
v 0.233083 -0.081396 0.073343
v 0.233083 0.030496 0.073343
v 0.048078 0.030496 0.239572
v -0.048077 -0.081396 -0.239573
v -0.233081 -0.081396 -0.073344
v -0.233081 0.030496 -0.073344
v -0.048077 0.030496 -0.239573
v -0.239572 -0.081396 0.048077
v -0.073343 -0.081396 0.233082
v -0.073343 0.030496 0.233082
v -0.239572 0.030496 0.048077
v 0.239573 -0.081396 -0.048078
v 0.073344 -0.081396 -0.233082
v 0.073344 0.030496 -0.233082
v 0.239573 0.030496 -0.048078
v 0.233083 -0.081396 0.073343
v 0.048078 -0.081396 0.239572
v 0.233083 0.030496 0.073343
v 0.048078 0.030496 0.239572
v -0.233081 -0.081396 -0.073344
v -0.048077 -0.081396 -0.239573
v -0.233081 0.030496 -0.073344
v -0.048077 0.030496 -0.239573
v -0.073343 -0.081396 0.233082
v -0.239572 -0.081396 0.048077
v -0.073343 0.030496 0.233082
v -0.239572 0.030496 0.048077
v 0.073344 -0.081396 -0.233082
v 0.239573 -0.081396 -0.048078
v 0.073344 0.030496 -0.233082
v 0.239573 0.030496 -0.048078
v 0.262975 -0.063583 -0.122334
v 0.149673 -0.063583 -0.248435
v 0.149673 0.012684 -0.248435
v 0.262975 0.012684 -0.122334
v -0.262974 -0.063583 0.122334
v -0.149671 -0.063583 0.248434
v -0.149671 0.012684 0.248434
v -0.262974 0.012684 0.122334
v -0.122333 -0.063583 -0.262975
v -0.248434 -0.063583 -0.149672
v -0.248434 0.012684 -0.149672
v -0.122333 0.012684 -0.262975
v 0.122335 -0.063583 0.262974
v 0.248435 -0.063583 0.149671
v 0.248435 0.012684 0.149671
v 0.122335 0.012684 0.262974
v 0.395598 -0.079594 -0.193652
v 0.234722 -0.079594 -0.372698
v 0.234722 0.028695 -0.372698
v 0.395598 0.028695 -0.193652
v -0.395596 -0.079594 0.193651
v -0.234721 -0.079594 0.372698
v -0.234721 0.028695 0.372698
v -0.395596 0.028695 0.193651
v -0.193651 -0.079594 -0.395597
v -0.372697 -0.079594 -0.234722
v -0.372697 0.028695 -0.234722
v -0.193651 0.028695 -0.395597
v 0.193652 -0.079594 0.395597
v 0.372699 -0.079594 0.234721
v 0.372699 0.028695 0.234721
v 0.193652 0.028695 0.395597
v 0.318320 -0.060364 -0.496114
v 0.527223 -0.060364 -0.263616
v 0.318320 0.009464 -0.496114
v 0.527223 0.009464 -0.263616
v -0.318318 -0.060364 0.496114
v -0.527221 -0.060364 0.263616
v -0.318318 0.009464 0.496114
v -0.527221 0.009464 0.263616
v -0.496113 -0.060364 -0.318320
v -0.263615 -0.060364 -0.527222
v -0.496113 0.009464 -0.318320
v -0.263615 0.009464 -0.527222
v 0.496115 -0.060364 0.318319
v 0.263617 -0.060364 0.527222
v 0.496115 0.009464 0.318319
v 0.263617 0.009464 0.527222
v 5.529098 -0.068993 -4.612496
v 5.173823 -0.047504 -5.007901
v 5.175715 0.022267 -5.005809
v 5.530990 0.000778 -4.610404
v -5.529096 -0.068993 4.612494
v -5.173820 -0.047504 5.007899
v -5.175713 0.022267 5.005807
v -5.530988 0.000778 4.610403
v -4.612494 -0.068993 -5.529097
v -5.007899 -0.047504 -5.173823
v -5.005807 0.022267 -5.175715
v -4.610402 0.000778 -5.530989
v 4.612496 -0.068993 5.529096
v 5.007901 -0.047504 5.173821
v 5.005809 0.022267 5.175714
v 4.610404 0.000778 5.530988
v 5.320444 -0.050983 -5.024451
v 5.671054 -0.072470 -4.624906
v 5.322336 0.018788 -5.022359
v 5.672946 -0.002699 -4.622813
v -5.320441 -0.050983 5.024449
v -5.671052 -0.072470 4.624904
v -5.322333 0.018788 5.022357
v -5.672944 -0.002699 4.622812
v -5.024448 -0.050983 -5.320443
v -4.624904 -0.072470 -5.671054
v -5.022357 0.018788 -5.322335
v -4.622811 -0.002699 -5.672946
v 5.024451 -0.050983 5.320442
v 4.624906 -0.072470 5.671052
v 5.022359 0.018788 5.322334
v 4.622813 -0.002699 5.672945
vt 0.625000 0.000000
vt 0.375000 0.250000
vt 0.375000 0.000000
vt 0.625000 0.250000
vt 0.375000 0.500000
vt 0.625000 0.500000
vt 0.375000 0.750000
vt 0.625000 0.750000
vt 0.375000 1.000000
vt 0.125000 0.750000
vt 0.125000 0.500000
vt 0.625000 1.000000
vt 0.625000 1.000000
vt 0.625000 0.500000
vt 0.625000 0.250000
vt 0.625000 0.500000
vt 0.625000 0.500000
vt 0.625000 0.750000
vt 0.625000 0.000000
vt 0.625000 0.250000
vt 0.625000 0.000000
vt 0.625000 0.250000
vt 0.625000 0.250000
vt 0.625000 0.250000
vt 0.625000 0.250000
vt 0.625000 0.500000
vt 0.625000 0.500000
vt 0.625000 0.500000
vt 0.625000 0.250000
vt 0.625000 0.750000
vt 0.625000 1.000000
vt 0.625000 1.000000
vt 0.625000 0.750000
vt 0.625000 1.000000
vt 0.625000 0.500000
vt 0.625000 0.500000
vt 0.625000 0.500000
vt 0.625000 0.750000
vt 0.625000 0.750000
vt 0.625000 0.000000
vt 0.625000 0.250000
vt 0.625000 1.000000
vt 0.625000 1.000000
vt 0.625000 0.000000
vt 0.625000 0.250000
vt 0.625000 0.500000
vt 0.625000 0.500000
vt 0.625000 0.750000
vt 0.625000 0.750000
vt 0.625000 0.000000
vt 0.625000 0.250000
vt 0.875000 0.500000
vt 0.625000 0.500000
vt 0.625000 0.000000
vt 0.625000 0.250000
vt 0.625000 1.000000
vt 0.625000 0.250000
vt 0.625000 0.500000
vt 0.625000 0.250000
vt 0.625000 0.500000
vt 0.625000 0.500000
vt 0.625000 0.750000
vt 0.625000 0.250000
vt 0.625000 0.250000
vt 0.625000 0.250000
vt 0.625000 0.250000
vt 0.625000 0.000000
vt 0.625000 0.750000
vt 0.625000 1.000000
vt 0.625000 0.750000
vt 0.625000 0.750000
vt 0.625000 1.000000
vt 0.625000 1.000000
vt 0.625000 0.750000
vt 0.625000 0.750000
vt 0.625000 0.750000
vt 0.625000 0.250000
vt 0.625000 0.500000
vt 0.625000 0.500000
vt 0.625000 1.000000
vt 0.625000 0.500000
vt 0.625000 0.500000
vt 0.625000 0.000000
vt 0.625000 0.500000
vt 0.625000 0.750000
vt 0.625000 0.000000
vt 0.625000 0.000000
vt 0.625000 0.250000
vt 0.625000 0.750000
vt 0.625000 0.750000
vt 0.625000 1.000000
vt 0.625000 0.000000
vt 0.625000 0.000000
vt 0.625000 0.250000
vt 0.625000 0.500000
vt 0.625000 0.500000
vt 0.625000 0.750000
vt 0.625000 0.750000
vt 0.625000 0.750000
vt 0.625000 0.500000
vt 0.625000 0.750000
vt 0.625000 0.750000
vt 0.625000 0.750000
vt 0.625000 1.000000
vt 0.625000 1.000000
vt 0.625000 1.000000
vt 0.625000 0.750000
vt 0.625000 0.000000
vt 0.625000 0.250000
vt 0.625000 0.000000
vt 0.625000 0.250000
vt 0.625000 0.250000
vt 0.625000 0.250000
vt 0.625000 0.500000
vt 0.625000 0.500000
vt 0.625000 0.000000
vt 0.625000 0.750000
vt 0.625000 0.000000
vt 0.625000 1.000000
vt 0.625000 0.750000
vt 0.625000 0.500000
vt 0.625000 0.250000
vt 0.625000 0.750000
vt 0.625000 0.250000
vt 0.625000 0.500000
vt 0.625000 1.000000
vt 0.625000 0.250000
vt 0.625000 0.500000
vt 0.625000 0.250000
vt 0.625000 0.250000
vt 0.625000 0.500000
vt 0.625000 0.250000
vt 0.625000 0.750000
vt 0.625000 0.500000
vt 0.625000 0.750000
vt 0.625000 1.000000
vt 0.625000 0.750000
vt 0.625000 0.750000
vt 0.625000 1.000000
vt 0.625000 0.750000
vt 0.625000 0.250000
vt 0.625000 0.000000
vt 0.625000 0.000000
vt 0.625000 0.250000
vt 0.625000 0.000000
vt 0.625000 0.250000
vt 0.625000 0.500000
vt 0.625000 0.500000
vt 0.625000 0.750000
vt 0.625000 0.500000
vt 0.625000 0.500000
vt 0.625000 1.000000
vt 0.625000 0.750000
vt 0.625000 1.000000
vt 0.625000 0.000000
vt 0.625000 0.250000
vt 0.625000 0.500000
vt 0.625000 0.750000
vt 0.625000 0.250000
vt 0.625000 0.000000
vt 0.875000 0.750000
vn -0.6684 0.0000 -0.7438
vn 0.7438 0.0000 -0.6684
vn 0.6684 0.0000 0.7438
vn -0.7438 0.0000 0.6684
vn 0.0000 -1.0000 -0.0000
vn -0.6381 -0.5140 0.5733
vn -0.0809 0.9941 0.0727
vn 0.6381 -0.5140 -0.5733
vn 0.5733 -0.5140 0.6381
vn -0.5733 -0.5140 -0.6381
vn -0.3387 0.8621 -0.3770
vn -0.8252 0.0000 -0.5648
vn -0.0809 -0.9941 0.0727
vn 0.0980 0.9913 -0.0881
vn -0.3770 0.8621 0.3387
vn 0.3770 0.8621 -0.3387
vn 0.3387 0.8621 0.3770
vn 0.4444 -0.7469 0.4946
vn -0.4444 -0.7469 -0.4946
vn -0.4946 -0.7469 0.4444
vn 0.4946 -0.7469 -0.4444
vn 0.2488 0.9281 0.2769
vn 0.0000 1.0000 0.0000
vn -0.2488 0.9281 -0.2769
vn -0.2769 0.9281 0.2488
vn 0.2769 0.9281 -0.2488
vn 0.0000 0.0000 1.0000
vn 0.1646 -0.9692 0.1831
vn 0.9763 0.0000 -0.2162
vn 0.1646 0.9692 0.1831
vn -0.3191 0.0000 0.9477
vn -0.1646 -0.9692 -0.1831
vn -0.9763 0.0000 0.2162
vn -0.1646 0.9692 -0.1831
vn 0.3191 0.0000 -0.9477
vn -0.1831 -0.9692 0.1646
vn 0.2162 0.0000 0.9763
vn -0.1831 0.9692 0.1646
vn -0.9477 0.0000 -0.3191
vn 0.1831 -0.9692 -0.1646
vn -0.2162 0.0000 -0.9763
vn 0.1831 0.9692 -0.1646
vn 0.9477 0.0000 0.3191
vn 0.1910 -0.9665 -0.1716
vn -0.1972 0.0000 -0.9804
vn 0.1910 0.9665 -0.1716
vn 0.9538 0.0000 0.3006
vn -0.1910 -0.9665 0.1716
vn 0.1972 0.0000 0.9804
vn -0.1910 0.9665 0.1716
vn -0.9538 0.0000 -0.3006
vn -0.1716 -0.9665 -0.1910
vn -0.9804 0.0000 0.1972
vn -0.1716 0.9665 -0.1910
vn 0.3006 0.0000 -0.9538
vn 0.1716 -0.9665 0.1910
vn 0.9804 0.0000 -0.1972
vn 0.1716 0.9665 0.1910
vn -0.3006 0.0000 0.9538
vn 0.4736 0.0000 0.8807
vn 0.0881 -0.9913 0.0980
vn 0.0809 -0.9941 -0.0727
vn 0.8252 0.0000 0.5648
vn 0.0809 0.9941 -0.0727
vn -0.4736 0.0000 -0.8807
vn 0.8279 0.0000 0.5608
vn 0.0727 -0.9941 0.0809
vn -0.5648 0.0000 0.8252
vn 0.0727 0.9941 0.0809
vn 0.8807 0.0000 -0.4736
vn -0.0881 -0.9913 -0.0980
vn -0.0727 -0.9941 -0.0809
vn 0.5648 0.0000 -0.8252
vn -0.0727 0.9941 -0.0809
vn -0.8807 0.0000 0.4736
vn -0.5608 0.0000 0.8279
vn -0.0980 0.9913 0.0881
vn 0.5608 0.0000 -0.8279
vn 0.4694 0.0000 0.8830
vn -0.0881 0.9913 -0.0980
vn -0.4694 0.0000 -0.8830
vn 0.0881 0.9913 0.0980
vn 0.8830 0.0000 -0.4694
vn -0.8830 0.0000 0.4694
vn 0.0980 -0.9913 -0.0881
vn -0.0980 -0.9913 0.0881
vn -0.8279 0.0000 -0.5608
vn 0.0271 0.9992 0.0300
vn -0.0010 -1.0000 0.0009
vn -0.6807 0.0000 -0.7326
vn -0.0014 1.0000 0.0013
vn 0.6558 0.0000 0.7549
vn 0.0300 -0.9992 -0.0271
vn 0.0010 -1.0000 -0.0009
vn 0.6807 0.0000 0.7326
vn 0.0014 1.0000 -0.0013
vn -0.6558 0.0000 -0.7549
vn 0.1113 0.0328 0.9932
vn 0.0009 -1.0000 0.0010
vn -0.7326 0.0000 0.6807
vn 0.0013 1.0000 0.0014
vn 0.7549 0.0000 -0.6558
vn -0.0300 -0.9992 0.0271
vn -0.0009 -1.0000 -0.0010
vn 0.7326 0.0000 -0.6807
vn -0.0013 1.0000 -0.0014
vn -0.7549 0.0000 0.6558
vn 0.7516 -0.0006 -0.6596
vn -0.7516 -0.0006 0.6596
vn -0.6596 -0.0006 -0.7516
vn 0.6596 -0.0006 0.7516
vn -0.9932 0.0328 0.1113
vn -0.0271 0.9992 -0.0300
vn 0.9932 0.0328 -0.1113
vn 0.0863 -0.0322 0.9958
vn 0.0300 0.9992 -0.0271
vn -0.0863 -0.0322 -0.9958
vn -0.0300 0.9992 0.0271
vn 0.9958 -0.0322 -0.0863
vn -0.9958 -0.0322 0.0863
vn -0.0271 -0.9992 -0.0300
vn 0.0271 -0.9992 0.0300
vn -0.1113 0.0328 -0.9932
vn -0.0261 -0.9992 -0.0309
vn -0.6799 0.0404 -0.7322
vn 0.0275 0.9992 0.0296
vn 0.6556 -0.0404 0.7541
vn 0.0261 -0.9992 0.0309
vn 0.6799 0.0404 0.7322
vn -0.0275 0.9992 -0.0296
vn -0.6556 -0.0404 -0.7541
vn -0.0309 -0.9992 0.0261
vn -0.7322 0.0404 0.6799
vn 0.0296 0.9992 -0.0275
vn 0.7541 -0.0404 -0.6556
vn 0.0309 -0.9992 -0.0261
vn 0.7322 0.0404 -0.6799
vn -0.0296 0.9992 0.0275
vn -0.7541 -0.0404 0.6556
usemtl Black
s off
f 2/1/1 3/2/1 1/3/1
f 4/4/2 7/5/2 3/2/2
f 8/6/3 5/7/3 7/5/3
f 6/8/4 1/9/4 5/7/4
f 7/5/5 1/10/5 3/11/5
f 6/8/6 9/12/6 2/13/6
f 88/14/7 71/15/7 72/16/7
f 4/4/8 11/17/8 8/6/8
f 8/6/9 12/18/9 6/8/9
f 4/4/10 9/19/10 10/20/10
f 13/21/11 18/22/11 14/23/11
f 87/24/12 70/25/12 71/15/12
f 70/25/13 85/26/13 69/27/13
f 87/24/14 104/28/14 103/29/14
f 20/30/4 21/31/4 17/32/4
f 16/33/15 17/32/15 13/34/15
f 15/35/16 18/22/16 19/36/16
f 16/33/17 19/36/17 20/30/17
f 23/37/18 28/38/18 24/39/18
f 18/22/2 23/37/2 19/36/2
f 19/36/3 24/39/3 20/30/3
f 17/40/1 22/41/1 18/22/1
f 28/38/4 29/42/4 25/43/4
f 21/44/19 26/45/19 22/41/19
f 24/39/20 25/43/20 21/31/20
f 22/41/21 27/46/21 23/37/21
f 31/47/22 36/48/22 32/49/22
f 26/45/2 31/47/2 27/46/2
f 27/46/3 32/49/3 28/38/3
f 25/50/1 30/51/1 26/45/1
f 34/52/23 36/48/23 35/53/23
f 30/51/24 33/54/24 34/55/24
f 29/42/25 36/48/25 33/56/25
f 30/51/26 35/53/26 31/47/26
f 51/57/27 68/58/27 67/59/27
f 38/60/28 12/18/28 11/17/28
f 39/61/29 11/17/29 15/35/29
f 16/33/30 39/61/30 15/35/30
f 37/62/31 16/33/31 12/18/31
f 44/63/27 58/64/27 60/65/27
f 9/19/32 41/66/32 10/20/32
f 43/67/33 9/19/33 13/21/33
f 44/63/34 13/21/34 14/23/34
f 41/66/35 14/23/35 10/20/35
f 47/68/27 64/69/27 63/70/27
f 46/71/36 9/12/36 12/18/36
f 47/68/37 12/18/37 16/33/37
f 48/72/38 16/33/38 13/34/38
f 45/73/39 13/34/39 9/12/39
f 40/74/27 54/75/27 56/76/27
f 50/77/40 11/17/40 10/20/40
f 51/57/41 10/20/41 14/23/41
f 52/78/42 14/23/42 15/35/42
f 49/79/43 15/35/43 11/17/43
f 48/72/27 62/80/27 64/69/27
f 52/78/27 66/81/27 68/58/27
f 37/62/27 53/82/27 54/75/27
f 41/66/27 57/83/27 58/64/27
f 38/60/27 55/84/27 53/82/27
f 45/73/27 61/85/27 62/80/27
f 42/86/27 59/87/27 57/83/27
f 49/79/27 65/88/27 66/81/27
f 39/61/27 56/76/27 55/84/27
f 46/71/27 63/70/27 61/85/27
f 43/67/27 60/65/27 59/87/27
f 50/77/27 67/59/27 65/88/27
f 70/25/44 66/81/44 65/88/44
f 71/15/45 65/88/45 67/59/45
f 72/16/46 67/59/46 68/58/46
f 66/81/47 72/16/47 68/58/47
f 74/89/48 62/80/48 61/85/48
f 75/90/49 61/85/49 63/70/49
f 64/69/50 75/90/50 63/70/50
f 73/91/51 64/69/51 62/80/51
f 78/92/52 58/64/52 57/83/52
f 79/93/53 57/83/53 59/87/53
f 60/65/54 79/93/54 59/87/54
f 58/64/55 80/94/55 60/65/55
f 82/95/56 54/75/56 53/82/56
f 83/96/57 53/82/57 55/84/57
f 84/97/58 55/84/58 56/76/58
f 81/98/59 56/76/59 54/75/59
f 85/26/60 72/16/60 69/27/60
f 97/99/61 113/100/61 114/101/61
f 90/102/62 73/91/62 74/89/62
f 91/103/63 74/89/63 75/90/63
f 92/104/64 75/90/64 76/105/64
f 89/106/65 76/105/65 73/91/65
f 91/103/66 105/107/66 90/102/66
f 94/108/67 77/109/67 78/92/67
f 95/110/68 78/92/68 79/93/68
f 96/111/69 79/93/69 80/94/69
f 93/112/70 80/94/70 77/109/70
f 94/108/71 110/113/71 93/112/71
f 98/114/72 81/98/72 82/95/72
f 99/115/73 82/95/73 83/96/73
f 84/97/74 99/115/74 83/96/74
f 97/99/75 84/97/75 81/98/75
f 95/110/76 109/116/76 94/108/76
f 92/104/77 107/117/77 91/103/77
f 99/115/78 113/100/78 98/114/78
f 85/26/79 104/28/79 88/14/79
f 96/111/80 111/118/80 95/110/80
f 89/106/81 108/119/81 92/104/81
f 100/120/82 115/121/82 99/115/82
f 93/112/83 112/122/83 96/111/83
f 97/99/84 116/123/84 100/120/84
f 85/26/85 101/124/85 102/125/85
f 90/102/86 106/126/86 89/106/86
f 87/24/87 101/124/87 86/127/87
usemtl Orange
f 120/128/88 135/129/88 119/130/88
usemtl Black
f 101/124/89 117/131/89 102/125/89
f 103/29/90 118/132/90 101/124/90
f 104/28/91 119/130/91 103/29/91
f 102/125/92 120/128/92 104/28/92
usemtl Orange
f 129/133/93 145/134/93 146/135/93
usemtl Black
f 105/107/94 121/136/94 106/126/94
f 107/117/95 122/137/95 105/107/95
f 108/119/96 123/138/96 107/117/96
f 106/126/97 124/139/97 108/119/97
usemtl Orange
f 123/138/98 137/140/98 122/137/98
usemtl Black
f 109/116/99 125/141/99 110/113/99
f 111/118/100 126/142/100 109/116/100
f 112/122/101 127/143/101 111/118/101
f 110/113/102 128/144/102 112/122/102
usemtl Orange
f 125/141/103 141/145/103 142/146/103
usemtl Black
f 113/100/104 129/133/104 114/101/104
f 115/121/105 130/147/105 113/100/105
f 116/123/106 131/148/106 115/121/106
f 114/101/107 132/149/107 116/123/107
usemtl Orange
f 134/150/108 135/129/108 136/151/108
f 138/152/109 139/153/109 140/154/109
f 142/146/110 143/155/110 144/156/110
f 146/135/111 147/157/111 148/158/111
f 127/143/112 141/145/112 126/142/112
f 124/139/113 139/153/113 123/138/113
f 130/147/114 147/157/114 145/134/114
f 120/128/115 134/150/115 136/151/115
f 128/144/116 143/155/116 127/143/116
f 124/139/117 138/152/117 140/154/117
f 132/149/118 147/157/118 131/148/118
f 128/144/119 142/146/119 144/156/119
f 132/149/120 146/135/120 148/158/120
f 117/131/121 133/159/121 134/150/121
f 121/136/122 137/140/122 138/152/122
f 119/130/123 133/159/123 118/132/123
usemtl Black
f 2/1/1 4/4/1 3/2/1
f 4/4/2 8/6/2 7/5/2
f 8/6/3 6/8/3 5/7/3
f 6/8/4 2/13/4 1/9/4
f 7/5/5 5/7/5 1/10/5
f 6/8/6 12/18/6 9/12/6
f 88/14/7 87/24/7 71/15/7
f 4/4/8 10/20/8 11/17/8
f 8/6/9 11/17/9 12/18/9
f 4/4/10 2/1/10 9/19/10
f 13/21/11 17/40/11 18/22/11
f 87/24/12 86/127/12 70/25/12
f 70/25/13 86/127/13 85/26/13
f 87/24/14 88/14/14 104/28/14
f 20/30/4 24/39/4 21/31/4
f 16/33/15 20/30/15 17/32/15
f 15/35/16 14/23/16 18/22/16
f 16/33/17 15/35/17 19/36/17
f 23/37/18 27/46/18 28/38/18
f 18/22/2 22/41/2 23/37/2
f 19/36/3 23/37/3 24/39/3
f 17/40/1 21/44/1 22/41/1
f 28/38/4 32/49/4 29/42/4
f 21/44/19 25/50/19 26/45/19
f 24/39/20 28/38/20 25/43/20
f 22/41/21 26/45/21 27/46/21
f 31/47/22 35/53/22 36/48/22
f 26/45/2 30/51/2 31/47/2
f 27/46/3 31/47/3 32/49/3
f 25/50/1 29/160/1 30/51/1
f 34/52/23 33/161/23 36/48/23
f 30/51/24 29/160/24 33/54/24
f 29/42/25 32/49/25 36/48/25
f 30/51/26 34/55/26 35/53/26
f 51/57/27 52/78/27 68/58/27
f 38/60/28 37/62/28 12/18/28
f 39/61/29 38/60/29 11/17/29
f 16/33/30 40/74/30 39/61/30
f 37/62/31 40/74/31 16/33/31
f 44/63/27 41/66/27 58/64/27
f 9/19/32 42/86/32 41/66/32
f 43/67/33 42/86/33 9/19/33
f 44/63/34 43/67/34 13/21/34
f 41/66/35 44/63/35 14/23/35
f 47/68/27 48/72/27 64/69/27
f 46/71/36 45/73/36 9/12/36
f 47/68/37 46/71/37 12/18/37
f 48/72/38 47/68/38 16/33/38
f 45/73/39 48/72/39 13/34/39
f 40/74/27 37/62/27 54/75/27
f 50/77/40 49/79/40 11/17/40
f 51/57/41 50/77/41 10/20/41
f 52/78/42 51/57/42 14/23/42
f 49/79/43 52/78/43 15/35/43
f 48/72/27 45/73/27 62/80/27
f 52/78/27 49/79/27 66/81/27
f 37/62/27 38/60/27 53/82/27
f 41/66/27 42/86/27 57/83/27
f 38/60/27 39/61/27 55/84/27
f 45/73/27 46/71/27 61/85/27
f 42/86/27 43/67/27 59/87/27
f 49/79/27 50/77/27 65/88/27
f 39/61/27 40/74/27 56/76/27
f 46/71/27 47/68/27 63/70/27
f 43/67/27 44/63/27 60/65/27
f 50/77/27 51/57/27 67/59/27
f 70/25/44 69/27/44 66/81/44
f 71/15/45 70/25/45 65/88/45
f 72/16/46 71/15/46 67/59/46
f 66/81/47 69/27/47 72/16/47
f 74/89/48 73/91/48 62/80/48
f 75/90/49 74/89/49 61/85/49
f 64/69/50 76/105/50 75/90/50
f 73/91/51 76/105/51 64/69/51
f 78/92/52 77/109/52 58/64/52
f 79/93/53 78/92/53 57/83/53
f 60/65/54 80/94/54 79/93/54
f 58/64/55 77/109/55 80/94/55
f 82/95/56 81/98/56 54/75/56
f 83/96/57 82/95/57 53/82/57
f 84/97/58 83/96/58 55/84/58
f 81/98/59 84/97/59 56/76/59
f 85/26/60 88/14/60 72/16/60
f 97/99/61 98/114/61 113/100/61
f 90/102/62 89/106/62 73/91/62
f 91/103/63 90/102/63 74/89/63
f 92/104/64 91/103/64 75/90/64
f 89/106/65 92/104/65 76/105/65
f 91/103/66 107/117/66 105/107/66
f 94/108/67 93/112/67 77/109/67
f 95/110/68 94/108/68 78/92/68
f 96/111/69 95/110/69 79/93/69
f 93/112/70 96/111/70 80/94/70
f 94/108/71 109/116/71 110/113/71
f 98/114/72 97/99/72 81/98/72
f 99/115/73 98/114/73 82/95/73
f 84/97/74 100/120/74 99/115/74
f 97/99/75 100/120/75 84/97/75
f 95/110/76 111/118/76 109/116/76
f 92/104/77 108/119/77 107/117/77
f 99/115/78 115/121/78 113/100/78
f 85/26/79 102/125/79 104/28/79
f 96/111/80 112/122/80 111/118/80
f 89/106/81 106/126/81 108/119/81
f 100/120/82 116/123/82 115/121/82
f 93/112/83 110/113/83 112/122/83
f 97/99/84 114/101/84 116/123/84
f 85/26/85 86/127/85 101/124/85
f 90/102/86 105/107/86 106/126/86
f 87/24/87 103/29/87 101/124/87
usemtl Orange
f 120/128/88 136/151/88 135/129/88
usemtl Black
f 101/124/124 118/132/124 117/131/124
f 103/29/125 119/130/125 118/132/125
f 104/28/126 120/128/126 119/130/126
f 102/125/127 117/131/127 120/128/127
usemtl Orange
f 129/133/93 130/147/93 145/134/93
usemtl Black
f 105/107/128 122/137/128 121/136/128
f 107/117/129 123/138/129 122/137/129
f 108/119/130 124/139/130 123/138/130
f 106/126/131 121/136/131 124/139/131
usemtl Orange
f 123/138/98 139/153/98 137/140/98
usemtl Black
f 109/116/132 126/142/132 125/141/132
f 111/118/133 127/143/133 126/142/133
f 112/122/134 128/144/134 127/143/134
f 110/113/135 125/141/135 128/144/135
usemtl Orange
f 125/141/103 126/142/103 141/145/103
usemtl Black
f 113/100/136 130/147/136 129/133/136
f 115/121/137 131/148/137 130/147/137
f 116/123/138 132/149/138 131/148/138
f 114/101/139 129/133/139 132/149/139
usemtl Orange
f 134/150/108 133/159/108 135/129/108
f 138/152/109 137/140/109 139/153/109
f 142/146/110 141/145/110 143/155/110
f 146/135/111 145/134/111 147/157/111
f 127/143/112 143/155/112 141/145/112
f 124/139/113 140/154/113 139/153/113
f 130/147/114 131/148/114 147/157/114
f 120/128/115 117/131/115 134/150/115
f 128/144/116 144/156/116 143/155/116
f 124/139/117 121/136/117 138/152/117
f 132/149/118 148/158/118 147/157/118
f 128/144/119 125/141/119 142/146/119
f 132/149/120 129/133/120 146/135/120
f 117/131/121 118/132/121 133/159/121
f 121/136/122 122/137/122 137/140/122
f 119/130/123 135/129/123 133/159/123
