# Blender v3.1.2 OBJ File: 'low-poly-helicopter.blend'
# www.blender.org
mtllib low-poly-helicopter_helice2.mtl
o Tail_Rotor_Cube.001
v 0.233126 0.006502 -0.097088
v 0.095520 0.006502 -0.097088
v 0.233126 0.097084 0.006498
v 0.095520 0.097084 0.006498
v 0.233126 -0.097085 -0.006504
v 0.095520 -0.097085 -0.006504
v 0.233126 -0.006502 0.097082
v 0.095520 -0.006502 0.097082
v 0.047574 0.009216 -0.137622
v 0.047574 0.137618 0.009214
v 0.047574 -0.009217 0.137616
v 0.047574 -0.137619 -0.009221
v -0.040179 0.009216 -0.137622
v -0.040179 0.137618 0.009214
v -0.040179 -0.009217 0.137616
v -0.040179 -0.137619 -0.009221
v -0.069129 0.004563 -0.068132
v -0.069129 0.068128 0.004559
v -0.069129 -0.004563 0.068125
v -0.069129 -0.068129 -0.004565
v -0.152500 0.004563 -0.068132
v -0.152500 0.068128 0.004559
v -0.152500 -0.004563 0.068125
v -0.152500 -0.068129 -0.004565
v -0.203162 0.009940 -0.148422
v -0.203162 0.148419 0.009936
v -0.203162 -0.009940 0.148416
v -0.203162 -0.148420 -0.009943
v 0.038813 -0.150762 0.028145
v 0.038813 -0.048001 0.145659
v -0.031417 -0.048001 0.145659
v -0.031417 -0.150762 0.028145
v 0.038813 0.150762 -0.028151
v 0.038813 0.048000 -0.145665
v -0.031417 0.048000 -0.145665
v -0.031417 0.150762 -0.028151
v 0.038813 -0.028148 -0.150765
v 0.038813 -0.145662 -0.048003
v -0.031417 -0.145662 -0.048003
v -0.031417 -0.028148 -0.150765
v 0.038813 0.028148 0.150759
v 0.038813 0.145662 0.047998
v -0.031417 0.145662 0.047998
v -0.031417 0.028148 0.150759
v 0.038813 -0.048001 0.145659
v 0.038813 -0.150762 0.028145
v -0.031417 -0.048001 0.145659
v -0.031417 -0.150762 0.028145
v 0.038813 0.048000 -0.145665
v 0.038813 0.150762 -0.028151
v -0.031417 0.048000 -0.145665
v -0.031417 0.150762 -0.028151
v 0.038813 -0.145662 -0.048003
v 0.038813 -0.028148 -0.150765
v -0.031417 -0.145662 -0.048003
v -0.031417 -0.028148 -0.150765
v 0.038813 0.145662 0.047998
v 0.038813 0.028148 0.150759
v -0.031417 0.145662 0.047998
v -0.031417 0.028148 0.150759
v 0.027632 0.074553 0.166073
v 0.027632 0.154652 0.096030
v -0.020237 0.154652 0.096030
v -0.020237 0.074553 0.166073
v 0.027632 -0.074554 -0.166080
v 0.027632 -0.154653 -0.096038
v -0.020237 -0.154653 -0.096038
v -0.020237 -0.074554 -0.166080
v 0.027632 0.166076 -0.074558
v 0.027632 0.096034 -0.154655
v -0.020237 0.096034 -0.154655
v -0.020237 0.166076 -0.074558
v 0.027632 -0.166077 0.074551
v 0.027632 -0.096035 0.154649
v -0.020237 -0.096035 0.154649
v -0.020237 -0.166077 0.074551
v 0.037682 0.118192 0.249911
v 0.037682 0.231921 0.150459
v -0.030286 0.231921 0.150459
v -0.030286 0.118192 0.249911
v 0.037682 -0.118192 -0.249916
v 0.037682 -0.231921 -0.150464
v -0.030286 -0.231921 -0.150464
v -0.030286 -0.118192 -0.249916
v 0.037682 0.249913 -0.118195
v 0.037682 0.150461 -0.231924
v -0.030286 0.150461 -0.231924
v -0.030286 0.249913 -0.118195
v 0.037682 -0.249914 0.118188
v 0.037682 -0.150462 0.231917
v -0.030286 -0.150462 0.231917
v -0.030286 -0.249914 0.118188
v 0.037682 0.651185 0.629913
v 0.037682 0.537456 0.729365
v -0.030286 0.651185 0.629913
v -0.030286 0.537456 0.729365
v 0.037682 -0.651185 -0.629918
v 0.037682 -0.537455 -0.729370
v -0.030286 -0.651184 -0.629917
v -0.030286 -0.537456 -0.729370
v 0.037682 0.629915 -0.651188
v 0.037682 0.729367 -0.537459
v -0.030286 0.629915 -0.651189
v -0.030286 0.729367 -0.537459
v 0.037682 -0.629915 0.651181
v 0.037682 -0.729367 0.537452
v -0.030286 -0.629915 0.651181
v -0.030286 -0.729367 0.537452
v 0.027550 0.673634 0.689797
v 0.027550 0.593812 0.759598
v -0.020154 0.673634 0.689797
v -0.020154 0.593812 0.759598
v 0.027550 -0.673633 -0.689802
v 0.027550 -0.593811 -0.759603
v -0.020154 -0.673633 -0.689802
v -0.020154 -0.593812 -0.759603
v 0.027550 0.689799 -0.673636
v 0.027550 0.759600 -0.593815
v -0.020154 0.689799 -0.673636
v -0.020154 0.759600 -0.593815
v 0.027550 -0.689800 0.673630
v 0.027550 -0.759601 0.593809
v -0.020154 -0.689800 0.673630
v -0.020154 -0.759601 0.593809
vt 0.625000 0.000000
vt 0.375000 0.250000
vt 0.375000 0.000000
vt 0.625000 0.250000
vt 0.375000 0.500000
vt 0.625000 0.500000
vt 0.375000 0.750000
vt 0.625000 0.750000
vt 0.375000 1.000000
vt 0.125000 0.500000
vt 0.125000 0.750000
vt 0.625000 1.000000
vt 0.625000 0.750000
vt 0.625000 1.000000
vt 0.625000 0.500000
vt 0.625000 0.250000
vt 0.625000 0.250000
vt 0.625000 0.250000
vt 0.625000 0.500000
vt 0.625000 0.000000
vt 0.625000 0.000000
vt 0.625000 0.250000
vt 0.625000 0.250000
vt 0.625000 0.250000
vt 0.625000 0.250000
vt 0.625000 0.500000
vt 0.625000 0.750000
vt 0.625000 1.000000
vt 0.625000 1.000000
vt 0.625000 0.750000
vt 0.625000 1.000000
vt 0.625000 0.500000
vt 0.625000 0.500000
vt 0.625000 0.750000
vt 0.625000 0.500000
vt 0.625000 0.750000
vt 0.625000 0.500000
vt 0.625000 0.000000
vt 0.625000 0.250000
vt 0.625000 0.000000
vt 0.625000 0.250000
vt 0.625000 1.000000
vt 0.625000 0.250000
vt 0.625000 0.500000
vt 0.625000 0.250000
vt 0.625000 0.500000
vt 0.625000 0.750000
vt 0.625000 0.750000
vt 0.625000 0.250000
vt 0.625000 0.250000
vt 0.625000 0.250000
vt 0.625000 0.000000
vt 0.625000 0.000000
vt 0.625000 0.250000
vt 0.625000 0.750000
vt 0.625000 1.000000
vt 0.625000 0.750000
vt 0.625000 1.000000
vt 0.625000 0.750000
vt 0.625000 1.000000
vt 0.625000 0.750000
vt 0.625000 0.750000
vt 0.625000 0.500000
vt 0.625000 0.500000
vt 0.625000 1.000000
vt 0.625000 0.500000
vt 0.625000 0.500000
vt 0.625000 0.000000
vt 0.625000 0.500000
vt 0.625000 0.750000
vt 0.625000 0.000000
vt 0.625000 0.250000
vt 0.625000 0.500000
vt 0.625000 0.250000
vt 0.625000 1.000000
vt 0.625000 0.750000
vt 0.625000 1.000000
vt 0.625000 0.250000
vt 0.625000 0.000000
vt 0.625000 0.250000
vt 0.625000 0.750000
vt 0.625000 0.500000
vt 0.625000 0.750000
vt 0.625000 0.500000
vt 0.625000 0.750000
vt 0.625000 1.000000
vt 0.625000 0.750000
vt 0.625000 1.000000
vt 0.625000 0.000000
vt 0.625000 0.000000
vt 0.625000 0.000000
vt 0.625000 0.250000
vt 0.625000 0.500000
vt 0.625000 0.500000
vt 0.625000 0.500000
vt 0.625000 0.750000
vt 0.625000 0.250000
vt 0.625000 0.000000
vt 0.625000 0.250000
vt 0.625000 0.250000
vt 0.625000 0.750000
vt 0.625000 1.000000
vt 0.625000 0.500000
vt 0.625000 0.750000
vt 0.625000 0.750000
vt 0.625000 0.750000
vt 0.625000 0.500000
vt 0.625000 0.750000
vt 0.625000 0.500000
vt 0.625000 0.250000
vt 0.625000 0.500000
vt 0.625000 0.500000
vt 0.625000 0.250000
vt 0.625000 0.000000
vt 0.625000 1.000000
vt 0.625000 0.750000
vt 0.625000 0.000000
vt 0.625000 0.750000
vt 0.625000 0.500000
vt 0.625000 0.750000
vt 0.625000 0.500000
vt 0.625000 0.750000
vt 0.625000 0.250000
vt 0.625000 0.500000
vt 0.625000 0.250000
vt 0.625000 1.000000
vt 0.625000 0.000000
vt 0.625000 0.250000
vt 0.625000 0.000000
vt 0.625000 0.750000
vt 0.625000 1.000000
vt 0.625000 0.500000
vt 0.625000 0.250000
vn 0.0000 0.7528 -0.6583
vn 0.0000 0.6583 0.7528
vn 0.0000 -0.7528 0.6583
vn 0.0000 -0.6583 -0.7528
vn 1.0000 0.0000 0.0000
vn 0.5140 -0.5647 -0.6457
vn -0.9941 -0.0716 -0.0819
vn 0.5140 0.5647 0.6457
vn 0.5139 -0.6458 0.5647
vn 0.5139 0.6458 -0.5647
vn -0.8621 0.3815 -0.3336
vn 0.0000 0.5759 -0.8175
vn 0.9941 -0.0716 -0.0819
vn -0.8621 -0.3336 -0.3815
vn -0.8621 0.3336 0.3815
vn -0.8621 -0.3815 0.3336
vn 0.7469 -0.5006 0.4377
vn 0.7469 0.5006 -0.4377
vn 0.7469 -0.4377 -0.5006
vn 0.7469 0.4377 0.5006
vn 0.0000 0.0000 1.0000
vn 0.9692 -0.1853 0.1621
vn 0.0000 0.2031 0.9792
vn -0.9692 -0.1853 0.1621
vn 0.0000 -0.9433 -0.3318
vn 0.9692 0.1853 -0.1621
vn 0.0000 -0.2031 -0.9792
vn -0.9692 0.1853 -0.1621
vn 0.0000 0.9433 0.3318
vn 0.9692 -0.1621 -0.1853
vn 0.0000 -0.9792 0.2031
vn -0.9692 -0.1621 -0.1853
vn 0.0000 0.3318 -0.9433
vn 0.9692 0.1621 0.1853
vn 0.0000 0.9792 -0.2031
vn -0.9692 0.1621 0.1853
vn 0.0000 -0.3318 0.9433
vn 0.9665 0.1691 0.1933
vn 0.0000 0.9829 -0.1840
vn -0.9665 0.1691 0.1933
vn 0.0000 -0.3134 0.9496
vn 0.9665 -0.1690 -0.1933
vn 0.0000 -0.9829 0.1840
vn -0.9665 -0.1690 -0.1933
vn 0.0000 0.3134 -0.9496
vn 0.9665 0.1933 -0.1690
vn 0.0000 -0.1840 -0.9829
vn -0.9665 0.1933 -0.1690
vn 0.0000 0.9496 0.3134
vn 0.9665 -0.1933 0.1690
vn 0.0000 0.1840 0.9829
vn -0.9665 -0.1933 0.1690
vn 0.0000 -0.9496 -0.3134
vn 0.0000 -0.8870 0.4617
vn 0.9941 0.0716 0.0819
vn 0.0000 -0.5759 0.8175
vn -0.9941 0.0716 0.0819
vn 0.0000 0.8870 -0.4617
vn 0.9941 -0.0819 0.0716
vn 0.0000 -0.8175 -0.5759
vn -0.9941 -0.0819 0.0716
vn 0.0000 0.4617 0.8870
vn 0.9941 0.0819 -0.0716
vn 0.0000 0.8175 0.5759
vn -0.9941 0.0819 -0.0716
vn 0.0000 -0.4617 -0.8870
vn -1.0000 0.0000 0.0000
vn 0.5139 -0.6457 0.5647
vn 0.5139 0.6457 -0.5647
vn -0.9860 -0.1256 0.1099
vn -0.9860 -0.1099 -0.1256
vn 0.0000 0.3510 0.9364
vn -0.0000 -0.9364 0.3510
vn -0.0000 0.4727 -0.8812
vn 0.9860 0.1099 0.1256
vn 0.0000 -0.8812 -0.4727
vn 0.9860 0.1256 -0.1099
vn 0.0000 0.9364 -0.3510
vn 0.0000 -0.3510 -0.9364
vn -0.9860 0.1099 0.1256
vn -0.9860 0.1256 -0.1099
vn 0.0000 -0.4727 0.8812
vn 0.0000 0.8812 0.4727
vn 0.9860 -0.1099 -0.1256
vn 0.9860 -0.1256 0.1099
usemtl Black
s off
f 2/1/1 3/2/1 1/3/1
f 4/4/2 7/5/2 3/2/2
f 8/6/3 5/7/3 7/5/3
f 6/8/4 1/9/4 5/7/4
f 3/10/5 5/7/5 1/11/5
f 2/12/6 12/13/6 9/14/6
f 64/15/7 79/16/7 63/17/7
f 8/6/8 10/18/8 11/19/8
f 6/8/9 11/19/9 12/13/9
f 4/4/10 9/20/10 10/18/10
f 13/21/11 18/22/11 14/23/11
f 79/16/12 62/24/12 63/17/12
f 78/25/13 61/26/13 62/24/13
f 20/27/4 21/28/4 17/29/4
f 16/30/14 17/29/14 13/31/14
f 14/23/15 19/32/15 15/33/15
f 15/33/16 20/27/16 16/30/16
f 24/34/17 27/35/17 28/36/17
f 18/22/2 23/37/2 19/32/2
f 19/32/3 24/34/3 20/27/3
f 18/22/1 21/38/1 22/39/1
f 22/39/18 25/40/18 26/41/18
f 21/28/19 28/36/19 25/42/19
f 23/37/20 26/41/20 27/35/20
f 43/43/21 60/44/21 59/45/21
f 30/46/22 12/13/22 11/19/22
f 15/33/23 30/46/23 11/19/23
f 32/47/24 15/33/24 16/30/24
f 29/48/25 16/30/25 12/13/25
f 36/49/21 50/50/21 52/51/21
f 34/52/26 10/18/26 9/20/26
f 35/53/27 9/20/27 13/21/27
f 14/23/28 35/53/28 13/21/28
f 33/54/29 14/23/29 10/18/29
f 39/55/21 56/56/21 55/57/21
f 12/13/30 37/58/30 9/14/30
f 16/30/31 38/59/31 12/13/31
f 40/60/32 16/30/32 13/31/32
f 37/58/33 13/31/33 9/14/33
f 32/47/21 46/61/21 48/62/21
f 10/18/34 41/63/34 11/19/34
f 43/43/35 10/18/35 14/23/35
f 44/64/36 14/23/36 15/33/36
f 41/63/37 15/33/37 11/19/37
f 40/60/21 54/65/21 56/56/21
f 44/64/21 58/66/21 60/44/21
f 29/48/21 45/67/21 46/61/21
f 33/54/21 49/68/21 50/50/21
f 30/46/21 47/69/21 45/67/21
f 37/58/21 53/70/21 54/65/21
f 34/52/21 51/71/21 49/68/21
f 41/63/21 57/72/21 58/66/21
f 31/73/21 48/62/21 47/69/21
f 38/59/21 55/57/21 53/70/21
f 35/53/21 52/51/21 51/71/21
f 42/74/21 59/45/21 57/72/21
f 57/72/38 61/26/38 58/66/38
f 63/17/39 57/72/39 59/45/39
f 64/15/40 59/45/40 60/44/40
f 58/66/41 64/15/41 60/44/41
f 53/70/42 65/75/42 54/65/42
f 67/76/43 53/70/43 55/57/43
f 68/77/44 55/57/44 56/56/44
f 54/65/45 68/77/45 56/56/45
f 49/68/46 69/78/46 50/50/46
f 71/79/47 49/68/47 51/71/47
f 72/80/48 51/71/48 52/51/48
f 69/78/49 52/51/49 50/50/49
f 45/67/50 73/81/50 46/61/50
f 75/82/51 45/67/51 47/69/51
f 76/83/52 47/69/52 48/62/52
f 73/81/53 48/62/53 46/61/53
f 77/84/54 64/15/54 61/26/54
f 66/85/55 81/86/55 65/75/55
f 83/87/56 66/85/56 67/76/56
f 84/88/57 67/76/57 68/77/57
f 81/86/58 68/77/58 65/75/58
f 86/89/59 69/78/59 70/90/59
f 87/91/60 70/90/60 71/79/60
f 72/80/61 87/91/61 71/79/61
f 69/78/62 88/92/62 72/80/62
f 90/93/63 73/81/63 74/94/63
f 91/95/64 74/94/64 75/82/64
f 76/83/65 91/95/65 75/82/65
f 73/81/66 92/96/66 76/83/66
f 25/42/67 27/35/67 26/41/67
f 85/97/5 101/98/5 102/99/5
f 79/16/1 93/100/1 78/25/1
f 82/101/5 98/102/5 81/86/5
f 78/25/5 94/103/5 77/84/5
f 82/101/3 99/104/3 97/105/3
f 89/106/5 105/107/5 106/108/5
f 79/16/67 96/109/67 95/110/67
f 87/91/4 101/98/4 86/89/4
f 84/88/67 99/104/67 83/87/67
f 90/93/2 107/111/2 105/107/2
f 77/84/3 96/109/3 80/112/3
f 87/91/67 104/113/67 103/114/67
f 84/88/1 98/102/1 100/115/1
f 92/96/67 107/111/67 91/95/67
f 85/97/2 104/113/2 88/92/2
f 89/106/4 108/116/4 92/96/4
f 2/1/1 4/4/1 3/2/1
f 4/4/2 8/6/2 7/5/2
f 8/6/3 6/8/3 5/7/3
f 6/8/4 2/12/4 1/9/4
f 3/10/5 7/5/5 5/7/5
f 2/12/6 6/8/6 12/13/6
f 64/15/7 80/112/7 79/16/7
f 8/6/8 4/4/8 10/18/8
f 6/8/68 8/6/68 11/19/68
f 4/4/69 2/1/69 9/20/69
f 13/21/11 17/117/11 18/22/11
f 79/16/12 78/25/12 62/24/12
f 78/25/13 77/84/13 61/26/13
f 20/27/4 24/34/4 21/28/4
f 16/30/14 20/27/14 17/29/14
f 14/23/15 18/22/15 19/32/15
f 15/33/16 19/32/16 20/27/16
f 24/34/17 23/37/17 27/35/17
f 18/22/2 22/39/2 23/37/2
f 19/32/3 23/37/3 24/34/3
f 18/22/1 17/117/1 21/38/1
f 22/39/18 21/38/18 25/40/18
f 21/28/19 24/34/19 28/36/19
f 23/37/20 22/39/20 26/41/20
f 43/43/21 44/64/21 60/44/21
f 30/46/22 29/48/22 12/13/22
f 15/33/23 31/73/23 30/46/23
f 32/47/24 31/73/24 15/33/24
f 29/48/25 32/47/25 16/30/25
f 36/49/21 33/54/21 50/50/21
f 34/52/26 33/54/26 10/18/26
f 35/53/27 34/52/27 9/20/27
f 14/23/28 36/49/28 35/53/28
f 33/54/29 36/49/29 14/23/29
f 39/55/21 40/60/21 56/56/21
f 12/13/30 38/59/30 37/58/30
f 16/30/31 39/55/31 38/59/31
f 40/60/32 39/55/32 16/30/32
f 37/58/33 40/60/33 13/31/33
f 32/47/21 29/48/21 46/61/21
f 10/18/34 42/74/34 41/63/34
f 43/43/35 42/74/35 10/18/35
f 44/64/36 43/43/36 14/23/36
f 41/63/37 44/64/37 15/33/37
f 40/60/21 37/58/21 54/65/21
f 44/64/21 41/63/21 58/66/21
f 29/48/21 30/46/21 45/67/21
f 33/54/21 34/52/21 49/68/21
f 30/46/21 31/73/21 47/69/21
f 37/58/21 38/59/21 53/70/21
f 34/52/21 35/53/21 51/71/21
f 41/63/21 42/74/21 57/72/21
f 31/73/21 32/47/21 48/62/21
f 38/59/21 39/55/21 55/57/21
f 35/53/21 36/49/21 52/51/21
f 42/74/21 43/43/21 59/45/21
f 57/72/38 62/24/38 61/26/38
f 63/17/39 62/24/39 57/72/39
f 64/15/40 63/17/40 59/45/40
f 58/66/41 61/26/41 64/15/41
f 53/70/42 66/85/42 65/75/42
f 67/76/43 66/85/43 53/70/43
f 68/77/44 67/76/44 55/57/44
f 54/65/45 65/75/45 68/77/45
f 49/68/46 70/90/46 69/78/46
f 71/79/47 70/90/47 49/68/47
f 72/80/48 71/79/48 51/71/48
f 69/78/49 72/80/49 52/51/49
f 45/67/50 74/94/50 73/81/50
f 75/82/51 74/94/51 45/67/51
f 76/83/52 75/82/52 47/69/52
f 73/81/53 76/83/53 48/62/53
f 77/84/54 80/112/54 64/15/54
f 66/85/55 82/101/55 81/86/55
f 83/87/56 82/101/56 66/85/56
f 84/88/57 83/87/57 67/76/57
f 81/86/58 84/88/58 68/77/58
f 86/89/59 85/97/59 69/78/59
f 87/91/60 86/89/60 70/90/60
f 72/80/61 88/92/61 87/91/61
f 69/78/62 85/97/62 88/92/62
f 90/93/63 89/106/63 73/81/63
f 91/95/64 90/93/64 74/94/64
f 76/83/65 92/96/65 91/95/65
f 73/81/66 89/106/66 92/96/66
f 25/42/67 28/36/67 27/35/67
f 85/97/5 86/89/5 101/98/5
f 79/16/1 95/110/1 93/100/1
f 82/101/5 97/105/5 98/102/5
f 78/25/5 93/100/5 94/103/5
f 82/101/3 83/87/3 99/104/3
f 89/106/5 90/93/5 105/107/5
f 79/16/67 80/112/67 96/109/67
f 87/91/4 103/114/4 101/98/4
f 84/88/67 100/115/67 99/104/67
f 90/93/2 91/95/2 107/111/2
f 77/84/3 94/103/3 96/109/3
f 87/91/67 88/92/67 104/113/67
f 84/88/1 81/86/1 98/102/1
f 92/96/67 108/116/67 107/111/67
f 85/97/2 102/99/2 104/113/2
f 89/106/4 106/108/4 108/116/4
usemtl Orange
f 107/111/70 124/118/70 123/119/70
f 100/115/71 115/120/71 99/104/71
f 105/107/72 123/119/72 121/121/72
f 97/105/73 115/120/73 113/122/73
f 111/123/2 110/124/2 109/125/2
f 115/120/4 114/126/4 113/122/4
f 119/127/1 118/128/1 117/129/1
f 121/121/3 124/118/3 122/130/3
f 100/115/74 114/126/74 116/131/74
f 93/100/75 110/124/75 94/103/75
f 108/116/76 122/130/76 124/118/76
f 101/98/77 118/128/77 102/99/77
f 95/110/78 109/125/78 93/100/78
f 103/114/79 117/129/79 101/98/79
f 95/110/80 112/132/80 111/123/80
f 104/113/81 119/127/81 103/114/81
f 96/109/82 110/124/82 112/132/82
f 102/99/83 120/133/83 104/113/83
f 97/105/84 114/126/84 98/102/84
f 105/107/85 122/130/85 106/108/85
f 107/111/70 108/116/70 124/118/70
f 100/115/71 116/131/71 115/120/71
f 105/107/72 107/111/72 123/119/72
f 97/105/73 99/104/73 115/120/73
f 111/123/2 112/132/2 110/124/2
f 115/120/4 116/131/4 114/126/4
f 119/127/1 120/133/1 118/128/1
f 121/121/3 123/119/3 124/118/3
f 100/115/74 98/102/74 114/126/74
f 93/100/75 109/125/75 110/124/75
f 108/116/76 106/108/76 122/130/76
f 101/98/77 117/129/77 118/128/77
f 95/110/78 111/123/78 109/125/78
f 103/114/79 119/127/79 117/129/79
f 95/110/80 96/109/80 112/132/80
f 104/113/81 120/133/81 119/127/81
f 96/109/82 94/103/82 110/124/82
f 102/99/83 118/128/83 120/133/83
f 97/105/84 113/122/84 114/126/84
f 105/107/85 121/121/85 122/130/85
